<?xml version="1.0" standalone="no"?><!DOCTYPE svg PUBLIC "-//W3C//DTD SVG 1.1//EN" "http://www.w3.org/Graphics/SVG/1.1/DTD/svg11.dtd"><svg t="1607598558584" class="icon" viewBox="0 0 1024 1024" version="1.1" xmlns="http://www.w3.org/2000/svg" p-id="3765" xmlns:xlink="http://www.w3.org/1999/xlink" width="200" height="200"><defs><style type="text/css"></style></defs><path d="M140.4 297.6h526.8c22 0 40 18 40 40v417.6c0 88.4-71.6 160-160 160H260.4c-88.4 0-160-71.6-160-160V337.6c0-22 18-40 40-40z" fill="#A49273" p-id="3766"></path><path d="M658 404.8h132.8c73.2 0 132.8 59.6 132.8 132.8v53.2c0 73.2-59.6 132.8-132.8 132.8h-132.8v-318.8z m46.4 46.4v225.6h86.4c47.6 0 86.4-38.8 86.4-86.4v-53.2c0-47.6-38.8-86.4-86.4-86.4h-86.4z" fill="#A49273" p-id="3767"></path><path d="M220 39.6c0-12.8 10.4-23.2 23.2-23.2s23.2 10.4 23.2 23.2v146.8c0 12.8-10.4 23.2-23.2 23.2S220 199.2 220 186.4V39.6zM382 90.8c0-12.8 10.4-23.2 23.2-23.2 12.8 0 23.2 10.4 23.2 23.2v95.6c0 12.8-10.4 23.2-23.2 23.2-12.8 0-23.2-10.4-23.2-23.2V90.8zM540.8 75.2c0-12.8 10.4-23.2 23.2-23.2 12.8 0 23.2 10.4 23.2 23.2v111.2c0 12.8-10.4 23.2-23.2 23.2-12.8 0-23.2-10.4-23.2-23.2V75.2zM155.2 1007.6c-12.8 0-23.2-10.4-23.2-23.2 0-12.8 10.4-23.2 23.2-23.2h497.2c12.8 0 23.2 10.4 23.2 23.2 0 12.8-10.4 23.2-23.2 23.2H155.2z" fill="#D2C7B5" p-id="3768"></path></svg>