<?xml version="1.0" standalone="no"?><!DOCTYPE svg PUBLIC "-//W3C//DTD SVG 1.1//EN" "http://www.w3.org/Graphics/SVG/1.1/DTD/svg11.dtd"><svg t="1607601488518" class="icon" viewBox="0 0 1039 1024" version="1.1" xmlns="http://www.w3.org/2000/svg" p-id="5698" xmlns:xlink="http://www.w3.org/1999/xlink" width="202.9296875" height="200"><defs><style type="text/css"></style></defs><path d="M474.672632 328.581096l69.101311 25.739079c2.898545 1.043476 6.260857-0.463767 7.304334-3.362312l0.927534-2.434778c1.043476-2.898545-0.463767-6.260857-3.362312-7.304333l-69.101312-25.739079c-2.898545-1.043476-6.260857 0.463767-7.304333 3.362312l-0.927534 2.434778c-1.043476 2.898545 0.463767 6.260857 3.362312 7.304333zM274.441147 350.725979c1.043476 2.898545 4.405788 4.405788 7.304333 3.362312l69.217253-25.275311c2.898545-1.043476 4.405788-4.405788 3.362312-7.304334l-0.927534-2.434777c-1.043476-2.898545-4.405788-4.405788-7.304333-3.362313l-69.217254 25.275312c-2.898545 1.043476-4.405788 4.405788-3.362312 7.304334l0.927535 2.434777zM322.441051 382.494032c-12.86954 0-23.304301 10.434762-23.304301 23.304301v11.942006c0 12.86954 10.434762 23.304301 23.304301 23.304301 12.86954 0 23.304301-10.434762 23.304301-23.304301V405.798333c0-12.753598-10.550704-23.304301-23.304301-23.304301zM508.643578 382.494032c-12.86954 0-23.304301 10.434762-23.304301 23.304301v11.942006c0 12.86954 10.434762 23.304301 23.304301 23.304301 12.86954 0 23.304301-10.434762 23.304302-23.304301V405.798333c0-12.753598-10.434762-23.304301-23.304302-23.304301z" fill="#3BE3C3" p-id="5699"></path><path d="M832.816846 875.01479c0-39.768037-36.173841-54.14482-67.246243-62.608571-7.536217-2.086952-14.724608-3.826079-21.101407-5.449265l-4.869556-1.391301c0.347825-0.695651 0.579709-1.391302 0.811593-2.086953-0.231884 0.695651-0.463767 1.391302-0.811593 2.086953l4.869556 1.391301c6.376799 1.623185 13.56519 3.362312 21.101407 5.449265l-25.043429-9.275344-174.028638-64.347698-18.202863-77.912888c58.66655-26.318788 86.608523-144.695364 86.608523-144.695364 6.028973-1.043476 11.826063-3.24637 17.159387-6.492741 26.318788-15.536201 44.405709-54.376703 49.739031-100.057771 2.202894-18.666629-2.434778-31.999936-9.391286-41.391222-13.681132-18.550688-36.637608-22.260825-36.637608-22.260825-1.623185-18.08692 4.753614-55.420179 4.753614-55.42018 12.985481 0.695651 22.260825-2.666661 28.753566-6.724624 0.347825-5.333323 0.695651-10.898529 0.927534-16.695619-0.231884 5.79709-0.579709 11.362296-0.927534 16.695619 9.04346-5.565206 12.521714-12.637656 12.521714-12.637656-4.753614-2.434778-8.463751-4.405788-11.59418-6.492741 2.202894-57.739015-3.594196-132.985242-42.666582-168.115607-38.492677-34.666598-63.420163-42.086873-77.681004-42.086872-26.202846-19.594164-55.652063-32.927471-83.709978-40.927455C452.64369-0.113901 408.12204-7.302293 356.643881 10.90057c-35.014423 12.405772-69.217253 31.999936-99.941829 57.275248-32.463703-1.623185-63.304222 12.289831-95.536042 87.999824-10.434762 24.579661-14.608667 49.391206-14.956492 72.579566-1.043476 65.854941 28.057915 119.072226 28.057915 119.072226s-25.043428-3.478254-39.420211 22.376767c-3.014487 5.449265-5.565206 12.173889-7.304333 20.521699-13.449249 91.246195 37.217317 117.912809 57.854957 124.869316 5.101439 1.739127 8.347809 2.202894 8.347809 2.202894 9.507227 95.883867 87.07229 142.260586 87.072291 142.260586l-18.550688 78.724481-185.506877 71.072322C44.296678 818.203309 0.006911 831.072848 0.006911 875.01479v111.883835s-1.971011 36.521666 60.63756 36.521666h711.650756c62.608571 0 60.63756-36.521666 60.63756-36.521666s-0.115942-62.492629-0.115941-111.883835z m-518.259837-233.39084c-0.463767-0.231884-0.927534-0.579709-1.391302-0.811592h198.492358s-70.724497 45.217301-98.898353 39.652095c-46.840486-9.275344-76.405645-26.782555-91.130254-34.78254-1.391302-0.811593-2.898545-1.507243-4.289846-2.318836l-0.695651-0.347825h0.115942c-0.695651-0.463767-1.391302-0.927534-2.202894-1.391302z m302.376209-241.970532c0 25.391254-3.362312 107.478047-41.507164 173.912697v-54.492645c0-11.362296-4.289847-21.681116-11.478238-29.449217l52.985402-89.970835z m36.869492-28.173857s27.014439 8.811577 20.985465 50.202799c-6.028973 41.391222-21.101407 50.434682-30.724577 60.869444 0.115942 0 11.942005-82.898386 9.739112-111.072243zM258.55712 194.320494s2.318836-25.15937 30.724577-26.318788 43.710058-19.130397 67.362184-17.970979c13.913016 0.695651 42.086873 49.159322 98.66647 88.463592 0 0 44.057883 29.449217 76.05782 37.217317 26.086905 7.999984 55.768005 12.753598 89.507068 12.289831l-3.24637 83.014327-64.695524 109.680941c-6.376799-3.594196-13.797074-5.681148-21.565174-5.681148H307.136734c-10.202878 0-19.594164 3.594196-27.130381 9.391285l-66.086825-112.115718c-0.927534-11.130413-1.27536-23.536185-1.27536-23.536185s53.449169-65.623058 45.912952-154.434475z m-97.970819 227.941575c-6.028973-41.391222 20.985465-50.202799 20.985466-50.202799-2.202894 28.173857 9.739111 111.072242 9.739111 111.072243-9.623169-10.434762-24.695603-19.478222-30.724577-60.869444z m55.304238-19.130397l54.260761 92.173729c-4.405788 6.840566-7.07245 15.072434-7.07245 23.768069v73.159274c-44.405709-65.275232-47.652079-155.014184-47.188311-189.101072z m200.463368 457.042568c-117.217158 0-288.811019-28.985449-288.811018-28.98545l167.535898-67.71001 17.391269-89.391126 1.507244 0.927534s19.478222 14.956492 25.391254 18.202862c4.869556 2.666661 46.028894 20.173873 79.883898 20.289815 33.855005 0 62.840454-16.579677 68.289719-17.39127 6.608682-1.043476 31.652111-20.405756 31.072402-20.985465l1.507243-0.927534 18.318805 94.376623L712.237376 831.304732c0.115942-0.115942-178.666311 28.869508-295.883469 28.869508z" fill="#3BE3C3" p-id="5700"></path><path d="M538.556562 768.464277l-18.318804-94.376623-1.507243 0.927534c0.579709 0.579709-24.579661 20.057931-31.072402 20.985466-5.565206 0.811593-34.434714 17.39127-68.289719 17.391269s-75.014343-17.623153-79.883899-20.289814c-6.028973-3.24637-25.391254-18.202862-25.391253-18.202863l-1.507244-0.927534-17.39127 89.391126L127.542889 831.18879s171.593861 28.985449 288.811018 28.98545 295.99941-28.985449 295.99941-28.98545l-173.796755-62.724513z" fill="#FFFFFF" p-id="5701"></path><path d="M890.555861 58.66859c-81.970851 0-148.405501 66.43465-148.405501 148.405502v446.028096c0 67.594068 45.217301 124.753375 107.130221 142.608412v188.28948c0 22.028942 17.970979 39.99992 39.99992 39.99992s39.99992-17.970979 39.99992-39.99992V796.406251c63.304222-17.043444 109.796883-74.78246 109.796883-143.304063V207.074092c0-81.970851-66.43465-148.405501-148.521443-148.405502z m113.738904 594.433598c0 51.362216-34.550656 96.463576-84.057804 109.796883l-25.739079 6.956508v214.144501c0 2.898545-2.318836 5.217381-5.217381 5.217381s-5.217381-2.318836-5.217381-5.217381v-214.492326l-25.15937-7.304334c-23.18836-6.724624-44.057883-20.985465-58.782491-40.347745-15.188376-19.941989-23.18836-43.710058-23.18836-68.869428V207.074092c0-62.724513 51.014391-113.622962 113.622962-113.622962s113.622962 51.014391 113.622962 113.622962v446.028096z" fill="#3BE3C3" p-id="5702"></path><path d="M890.555861 93.45113c-62.724513 0-113.622962 51.014391-113.622962 113.622962v446.028096c0 25.15937 7.999984 48.927439 23.18836 68.869428 14.724608 19.36228 35.594132 33.623121 58.782491 40.347746l25.15937 7.304333v214.376385c0 2.898545 2.318836 5.217381 5.217381 5.217381s5.217381-2.318836 5.217381-5.217381V769.739637l25.739079-6.956508c49.507148-13.333307 84.057804-58.434666 84.057804-109.796882V207.074092c0-62.724513-51.014391-113.622962-113.738904-113.622962z m88.231708 150.724337c0 7.999984-6.492741 14.492725-14.492725 14.492725h-59.246258v44.985417h59.246258c7.999984 0 14.492725 6.492741 14.492725 14.492725s-6.492741 14.492725-14.492725 14.492725h-59.246258v44.985417h59.246258c7.999984 0 14.492725 6.492741 14.492725 14.492725s-6.492741 14.492725-14.492725 14.492725h-59.246258v44.985418h59.246258c7.999984 0 14.492725 6.492741 14.492725 14.492724s-6.492741 14.492725-14.492725 14.492725h-59.246258v44.985418h59.246258c7.999984 0 14.492725 6.492741 14.492725 14.492724s-6.492741 14.492725-14.492725 14.492725h-59.246258v44.985418h59.246258c7.999984 0 14.492725 6.492741 14.492725 14.492724s-6.492741 14.492725-14.492725 14.492725h-59.246258v67.594068c0 7.999984-6.492741 14.492725-14.492725 14.492725s-14.492725-6.492741-14.492725-14.492725v-67.594068h-60.289735c-7.999984 0-14.492725-6.492741-14.492724-14.492725s6.492741-14.492725 14.492724-14.492724h60.289735v-44.985418h-60.289735c-7.999984 0-14.492725-6.492741-14.492724-14.492725s6.492741-14.492725 14.492724-14.492724h60.289735v-44.985418h-60.289735c-7.999984 0-14.492725-6.492741-14.492724-14.492725s6.492741-14.492725 14.492724-14.492724h60.289735v-44.985418h-60.289735c-7.999984 0-14.492725-6.492741-14.492724-14.492725s6.492741-14.492725 14.492724-14.492725h60.289735v-44.985417h-60.289735c-7.999984 0-14.492725-6.492741-14.492724-14.492725s6.492741-14.492725 14.492724-14.492725h60.289735v-44.985417h-60.289735c-7.999984 0-14.492725-6.492741-14.492724-14.492725s6.492741-14.492725 14.492724-14.492725h60.289735v-44.637592c0-7.999984 6.492741-14.492725 14.492725-14.492725s14.492725 6.492741 14.492725 14.492725v44.637592h59.246258c7.999984 0 14.492725 6.492741 14.492725 14.492725z" fill="#FFFFFF" p-id="5703"></path><path d="M905.048586 229.682742v-44.637592c0-7.999984-6.492741-14.492725-14.492725-14.492725s-14.492725 6.492741-14.492725 14.492725v44.637592h-60.289735c-7.999984 0-14.492725 6.492741-14.492724 14.492725s6.492741 14.492725 14.492724 14.492725h60.289735v44.985417h-60.289735c-7.999984 0-14.492725 6.492741-14.492724 14.492725s6.492741 14.492725 14.492724 14.492725h60.289735v44.985417h-60.289735c-7.999984 0-14.492725 6.492741-14.492724 14.492725s6.492741 14.492725 14.492724 14.492725h60.289735v44.985418h-60.289735c-7.999984 0-14.492725 6.492741-14.492724 14.492724s6.492741 14.492725 14.492724 14.492725h60.289735v44.985418h-60.289735c-7.999984 0-14.492725 6.492741-14.492724 14.492724s6.492741 14.492725 14.492724 14.492725h60.289735v44.985418h-60.289735c-7.999984 0-14.492725 6.492741-14.492724 14.492724s6.492741 14.492725 14.492724 14.492725h60.289735v67.594068c0 7.999984 6.492741 14.492725 14.492725 14.492725s14.492725-6.492741 14.492725-14.492725v-67.594068h59.246258c7.999984 0 14.492725-6.492741 14.492725-14.492725s-6.492741-14.492725-14.492725-14.492724h-59.246258v-44.985418h59.246258c7.999984 0 14.492725-6.492741 14.492725-14.492725s-6.492741-14.492725-14.492725-14.492724h-59.246258v-44.985418h59.246258c7.999984 0 14.492725-6.492741 14.492725-14.492725s-6.492741-14.492725-14.492725-14.492724h-59.246258v-44.985418h59.246258c7.999984 0 14.492725-6.492741 14.492725-14.492725s-6.492741-14.492725-14.492725-14.492725h-59.246258v-44.985417h59.246258c7.999984 0 14.492725-6.492741 14.492725-14.492725s-6.492741-14.492725-14.492725-14.492725h-59.246258v-44.985417h59.246258c7.999984 0 14.492725-6.492741 14.492725-14.492725s-6.492741-14.492725-14.492725-14.492725h-59.246258z" fill="#3BE3C3" p-id="5704"></path></svg>